<?xml version="1.0" encoding="utf-8"?>
<!-- Generator: Adobe Illustrator 19.1.0, SVG Export Plug-In . SVG Version: 6.00 Build 0)  -->
<svg version="1.1" id="Logotype_1_" xmlns="http://www.w3.org/2000/svg" xmlns:xlink="http://www.w3.org/1999/xlink" x="0px"
	 y="0px" viewBox="0 0 1000 500" style="enable-background:new 0 0 1000 500;" xml:space="preserve">
<style type="text/css">
	.st0{fill:#24A1A6;}
	.st1{fill:#FFFFFF;}
	.st2{fill:#263238;}
</style>
<rect id="Bg" y="0" class="st0" width="1000" height="502.9"/>
<g id="Wirex">
	<g>
		<path class="st1" d="M645.5,232.4c-1.7,0-2.9,0.8-3.5,1.9c-0.5,0.9-0.6,1.7-0.6,3.6v29.7c0,1.9,0.1,2.6,0.6,3.6
			c0.6,1.1,1.7,1.9,3.5,1.9c1.7,0,2.9-0.8,3.5-1.9c0.5-0.9,0.6-1.7,0.6-3.6v-29.7c0-1.9-0.1-2.7-0.6-3.6
			C648.4,233.2,647.2,232.4,645.5,232.4z M785,239.6c1-1.6,1.4-2.4,1.4-3.4c0-1.2-0.7-2.4-1.9-3.1c-0.8-0.5-1.5-0.7-2.2-0.7
			c-1.8,0-2.7,1.1-3.9,3l-3.8,6.2l4.7,6.9L785,239.6z M785.2,265.9l-20.1-30.5c-1.2-2-2.1-3-3.9-3c-0.7,0-1.5,0.2-2.2,0.7
			c-1.2,0.8-1.9,1.9-1.9,3.1c0,1,0.4,1.8,1.4,3.4l8.4,13.1l-8.6,13.2c-1,1.6-1.4,2.4-1.4,3.4c0,1.2,0.7,2.4,1.9,3.1
			c0.8,0.5,1.5,0.7,2.2,0.7c1.8,0,2.7-1.1,3.9-3l6.8-11.1l6.8,11.1c1.2,2,2.1,3,3.9,3c0.7,0,1.5-0.2,2.2-0.7
			c1.2-0.8,1.9-1.9,1.9-3.1C786.6,268.4,786.2,267.5,785.2,265.9z M726.3,232.1c-10.3,0-17.1,7.3-17.1,20.5
			c0,15.3,8.1,20.5,18.2,20.5c4.3,0,8-0.9,10.5-2.6c2-1.3,4.1-3,4.1-4.9c0-1.9-1.7-3.4-3.3-3.4c-1,0-2.1,0.5-3.3,1.5
			c-2.2,1.7-4.9,2.5-7.7,2.5c-6.7,0-10.3-4.5-10.3-11.3v-5.6c0.1-2.5,0.2-3.7,1-5.5c1.4-3,4.1-5.1,8-5.1c3.8,0,6.6,2.1,7.9,5.1
			c0.8,1.7,1,3,1.1,5.5h-13.5v5.6h16.8c1.2,0,2.5,0,3.6-1c1-1,1.2-2.4,1.1-3.6C743.1,239.7,736.8,232.1,726.3,232.1z M695.8,234
			c-1.9-1.3-4.1-1.9-7.1-1.9c-2.1,0-4,0.5-5.7,1.2v7c1.1-0.6,2.4-1,3.7-1c1.6,0,3,0.4,4.4,1.2c1.4,0.8,2.3,1.1,3.1,1.1
			c1,0,2.1-0.4,2.8-1.1c0.7-0.7,1.2-1.8,1.2-2.9C698.2,236.1,697.2,234.9,695.8,234z M678.5,236.8c-0.1-1.7-0.3-2.3-0.7-2.9
			c-0.8-1.1-2-1.6-3.3-1.6c-1.4,0-2.7,0.6-3.3,1.7c-0.6,0.9-0.7,1.6-0.7,3.8v29.7c0,1.9,0.1,2.6,0.6,3.6c0.6,1.1,1.7,1.9,3.5,1.9
			s2.9-0.8,3.5-1.9c0.5-0.9,0.6-1.7,0.6-3.6L678.5,236.8C678.5,236.8,678.5,236.8,678.5,236.8z M600.7,233.4c-0.7-0.6-1.6-1-2.7-1
			c-1.2,0-2,0.4-2.7,1c-0.9,0.7-1.4,1.8-2,3.8l-7.3,23.7l-7-24.3c-0.5-1.7-0.8-2.5-1.4-3c-0.7-0.7-1.5-1.1-2.6-1.1
			c-1.8,0-3.5,1.2-3.8,2.7c-0.2,1-0.1,1.7,0.4,3.5l8.8,29.5c0.6,2.1,1.2,3.2,2.1,3.9c0.8,0.7,1.8,1.1,3,1.1c1.2,0,2.2-0.4,3-1.1
			c0.9-0.7,1.4-1.8,2.1-3.9l7.4-23.7l7.4,23.7c0.6,2.1,1.2,3.2,2.1,3.9c0.8,0.7,1.8,1.1,3,1.1c1.1,0,2-0.3,2.7-0.9l-10.4-35.1
			C602.1,235.2,601.5,234.1,600.7,233.4z M620.9,232.4c-1.1,0-1.9,0.4-2.6,1.1c-0.6,0.6-0.9,1.4-1.4,3l-4.6,16.1l3.8,13.5l8.2-27.5
			c0.5-1.8,0.6-2.5,0.4-3.5C624.3,233.6,622.6,232.4,620.9,232.4z"/>
	</g>
</g>
<g id="WX">
	<g id="XMLID_4_">
		<path id="XMLID_10_" class="st1" d="M514.4,246.1l21.8-16.6c2-1.5,2.4-4.4,0.9-6.4c-1.5-2-4.4-2.4-6.4-0.9L507.5,240L514.4,246.1z
			"/>
		<path id="XMLID_13_" class="st1" d="M487,255.6l-17.4,13.2c-8.2,6.2-22,6.2-30.1,0l-43.3-32.9c-11.3-8.6-29.8-8.6-41.1,0
			l-43.3,32.9c-8.2,6.2-22,6.2-30.1,0l-61.1-46.5c-2-1.5-4.8-1.1-6.4,0.9c-1.5,2-1.1,4.8,0.9,6.4l61.1,46.5
			c11.3,8.6,29.8,8.6,41.1,0l43.3-32.9c8.2-6.2,22-6.2,30.1,0L434,276c5.7,4.3,13.1,6.5,20.5,6.5c7.4,0,14.9-2.2,20.5-6.5l18.9-14.3
			L487,255.6z"/>
	</g>
	<g id="XMLID_6_">
		<path id="XMLID_7_" class="st2" d="M533.4,283.9c-1.1,0-2.1-0.4-3-1.1l-61-53.4c-1.9-1.6-2.1-4.5-0.4-6.4c1.6-1.9,4.5-2.1,6.4-0.4
			l61,53.4c1.9,1.6,2.1,4.5,0.4,6.4C536,283.3,534.7,283.9,533.4,283.9z"/>
	</g>
</g>
</svg>
